<?xml version="1.0" encoding="UTF-8"?>
<svg width="175px" height="31px" viewBox="0 0 175 31" version="1.1" xmlns="http://www.w3.org/2000/svg" xmlns:xlink="http://www.w3.org/1999/xlink">
    <!-- Generator: Sketch 55.1 (78136) - https://sketchapp.com -->
    <title>Logo Dark</title>
    <desc>Created with Sketch.</desc>
    <g id="Logo-Dark" stroke="none" stroke-width="1" fill="none" fill-rule="evenodd">
        <g id="logo" fill="#085FF7">
            <path d="M96.6930112,22.2737295 C96.3209663,23.0763284 95.8246319,23.6712162 95.218001,24.0585581 C94.5973773,24.4459001 93.9207822,24.639571 93.1766922,24.639571 L93.1626994,24.639571 C92.4186094,24.639571 91.7420143,24.4324381 91.1213906,24.0311386 C90.5007669,23.6160468 90.0044325,23.0072015 89.6463804,22.2046026 C89.2875051,21.3882114 89.1080675,20.4055687 89.1080675,19.2433778 C89.1080675,18.1499008 89.2735123,17.181546 89.6183947,16.3650722 C89.9492843,15.5347234 90.4324489,14.8981282 91.0390798,14.4555343 C91.6597035,13.9988177 92.3494683,13.7911067 93.1355368,13.7911067 L93.1766922,13.7911067 C93.9076125,13.7911067 94.5833845,14.0126101 95.2040082,14.441742 C95.8246319,14.8707913 96.3209663,15.4935116 96.6930112,16.3099028 C97.0650562,17.126294 97.245317,18.1086889 97.245317,19.2433778 C97.245317,20.4610684 97.0650562,21.4711306 96.6930112,22.2737295 L96.6930112,22.2737295 Z M100.982229,4.86605512 C100.623354,4.45096333 100.141012,4.24333485 99.4924029,4.24333485 C98.8446166,4.24333485 98.3482822,4.46483827 98.0033998,4.92163745 C97.6585174,5.36423134 97.4790798,6.02857641 97.4790798,6.90021961 L97.4790798,13.2101764 C96.6790184,12.3245757 95.8517945,11.6879805 95.0105777,11.2589311 C94.4870808,10.9961333 93.8664571,10.8025449 93.1766922,10.7057507 C92.7766616,10.6501684 92.362638,10.6224185 91.9074591,10.6224185 C89.7978323,10.6224185 88.0874131,11.3696829 86.7778476,12.8639637 C85.4814519,14.3587402 84.8328425,16.4341165 84.8328425,19.1048762 C84.8328425,20.3641917 84.9982873,21.5401749 85.3291769,22.619777 C85.6608896,23.6989661 86.1292382,24.639571 86.7638548,25.4425003 C87.3984714,26.2450991 88.1565542,26.8539445 89.0257566,27.2968687 C89.894136,27.7255051 90.8324796,27.9469259 91.8531339,27.9469259 C92.3214826,27.9469259 92.7626687,27.9052185 93.1766922,27.8223819 C93.4524335,27.7810874 93.714182,27.7117127 93.9767536,27.6287109 C94.6245399,27.4072075 95.2319939,27.0892402 95.7826534,26.6880234 C96.3489519,26.2725186 96.9136043,25.7331306 97.4790798,25.0825778 L97.4790798,25.4976696 C97.4790798,26.2868065 97.6725102,26.8816943 98.0445552,27.3103307 C98.430593,27.7255051 98.9137577,27.9469259 99.4924029,27.9469259 C100.085864,27.9469259 100.568206,27.7394626 100.941074,27.3380806 C101.313119,26.9230714 101.506549,26.314226 101.506549,25.4976696 L101.506549,6.67871619 C101.506549,5.89007483 101.327111,5.2812295 100.982229,4.86605512 L100.982229,4.86605512 Z" id="Fill-2"></path>
            <path d="M73.5936268,14.6353304 C74.2692342,13.9018584 75.138272,13.5423489 76.1999172,13.5423489 L76.2137454,13.5423489 C77.3171222,13.5423489 78.2134049,13.9018584 78.8893415,14.621538 C79.5650312,15.3410525 79.9649796,16.4341165 80.0613655,17.9010605 L72.352297,17.9010605 C72.4904146,16.4618664 72.9041089,15.3688023 73.5936268,14.6353304 L73.5936268,14.6353304 Z M83.5232771,22.4535255 C83.2607055,22.2185601 82.9026534,22.0938509 82.4606442,22.0938509 C82.0608604,22.0938509 81.757545,22.1907277 81.5372812,22.3705237 C80.9992152,22.8686173 80.5716104,23.2698342 80.2405562,23.5604645 C79.9099959,23.8374677 79.5373747,24.1141405 79.1374264,24.3768557 C78.7513062,24.626109 78.3375297,24.81978 77.9239177,24.9305317 C77.4962306,25.0552409 77.0413809,25.1103277 76.531136,25.1103277 C76.4206748,25.1103277 76.3103783,25.1103277 76.2137454,25.0964528 C75.5792935,25.0552409 74.9864085,24.875032 74.4488364,24.5428594 C73.8143845,24.1693098 73.3178855,23.6160468 72.9314361,22.8964498 C72.5591442,22.1490203 72.3662076,21.291252 72.352297,20.3225669 L80.668161,20.3225669 C81.7852014,20.3225669 82.6540746,20.1566458 83.2607055,19.8522231 C83.8813292,19.5200506 84.1850562,18.8282034 84.1850562,17.7625589 C84.1850562,16.6004505 83.8813292,15.4656791 83.2886912,14.3447826 C82.6952301,13.2378437 81.8129402,12.3245757 80.6131774,11.6189361 C79.4269959,10.9132966 78.0064755,10.5671666 76.3379525,10.5671666 L76.2137454,10.5671666 C74.9864085,10.5810415 73.8554576,10.7885874 72.8487137,11.1759293 C71.8008967,11.5911863 70.9179484,12.1860741 70.1870281,12.9472959 C69.4837643,13.7221449 68.9322817,14.6492879 68.5600721,15.728477 C68.1874509,16.8079964 67.994432,17.9839797 67.994432,19.2433778 C67.994432,21.9275995 68.7531733,24.0311386 70.2699974,25.594629 C71.7044284,27.0754479 73.6900951,27.8501317 76.2137454,27.9331336 C76.351863,27.9469259 76.5033149,27.9469259 76.6552607,27.9469259 C77.8411953,27.9469259 78.903252,27.7949623 79.8269443,27.4765822 C80.7508011,27.1582845 81.5094601,26.7709426 82.1162556,26.3002685 C82.7232157,25.8160498 83.1775716,25.3178736 83.4812986,24.8059876 C83.7850256,24.2939365 83.9364775,23.8374677 83.9364775,23.4635877 C83.9364775,23.034621 83.7990184,22.6887387 83.5232771,22.4535255 L83.5232771,22.4535255 Z" id="Fill-3"></path>
            <path d="M56.5617858,14.6353304 C57.2373931,13.9018584 58.1065956,13.5423489 59.1682408,13.5423489 L59.1819867,13.5423489 C60.2853635,13.5423489 61.1816462,13.9018584 61.8575828,14.621538 C62.5471007,15.3410525 62.9332209,16.4341165 63.0435174,17.9010605 L55.3205383,17.9010605 C55.4724842,16.4618664 55.8860961,15.3688023 56.5617858,14.6353304 L56.5617858,14.6353304 Z M65.4430429,22.0938509 C65.0296779,22.0938509 64.7259509,22.1907277 64.5055225,22.3705237 C63.9814494,22.8686173 63.5400164,23.2698342 63.2092091,23.5604645 C62.8782372,23.8374677 62.519362,24.1141405 62.1194959,24.3768557 C61.7196299,24.626109 61.3196815,24.81978 60.892159,24.9305317 C60.4783001,25.0552409 60.0095399,25.1103277 59.4993773,25.1103277 C59.3889985,25.1103277 59.2786196,25.1103277 59.1819867,25.0964528 C58.5475348,25.0552409 57.9546498,24.875032 57.4167485,24.5428594 C56.7963717,24.1693098 56.2861268,23.6160468 55.9139172,22.8964498 C55.5273855,22.1490203 55.3344489,21.291252 55.3205383,20.3225669 L63.6503129,20.3225669 C64.7536074,20.3225669 65.6225629,20.1566458 66.2428574,19.8522231 C66.8497352,19.5200506 67.1534622,18.8282034 67.1534622,17.7625589 C67.1534622,16.6004505 66.8634811,15.4656791 66.2705138,14.3447826 C65.6775465,13.2378437 64.7812638,12.3245757 63.5954116,11.6189361 C62.4089831,10.9132966 60.9747168,10.5671666 59.3201043,10.5671666 L59.1819867,10.5671666 C57.9546498,10.5810415 56.8376094,10.7885874 55.8170373,11.1759293 C54.7692203,11.5911863 53.8866012,12.1860741 53.16918,12.9472959 C52.4520056,13.7221449 51.9004407,14.6492879 51.5283134,15.728477 C51.1556922,16.8079964 50.9626733,17.9839797 50.9626733,19.2433778 C50.9626733,21.9275995 51.7351605,24.0311386 53.2521493,25.5945464 C54.6864156,27.0754479 56.6583364,27.8501317 59.1819867,27.9331336 C59.3339325,27.9469259 59.4715562,27.9469259 59.623502,27.9469259 C60.8232648,27.9469259 61.8714934,27.7949623 62.7951033,27.4765822 C63.7191247,27.1582845 64.4778661,26.7709426 65.0845792,26.3002685 C65.7052853,25.8160498 66.1463891,25.3178736 66.4497868,24.8059876 C66.7535961,24.2939365 66.9049657,23.8374677 66.9049657,23.4635877 C66.9049657,23.034621 66.7670128,22.6887387 66.5050997,22.4535255 C66.2293584,22.2185601 65.8706478,22.0938509 65.4430429,22.0938509 L65.4430429,22.0938509 Z" id="Fill-4"></path>
            <path d="M8.85911554,25.1103277 L8.85911554,14.9258781 C9.14868507,14.953628 9.42450869,14.9675855 9.71416053,14.9675855 C11.0932786,14.9675855 12.3895097,14.5937056 13.4928042,13.9296908 L13.4928042,25.1103277 C13.4928042,26.0653031 13.2722111,26.7709426 12.8446063,27.2412864 C12.4170838,27.7117127 11.851773,27.9469259 11.1621728,27.9469259 C10.4864008,27.9469259 9.9485818,27.7117127 9.50723108,27.2273289 C9.07970859,26.7569851 8.85911554,26.0513456 8.85911554,25.1103277" id="Fill-5"></path>
            <path d="M44.6464688,22.2737295 C44.2740946,23.0763284 43.7776779,23.6712162 43.1569719,24.0585581 C42.5501764,24.4459001 41.8607408,24.639571 41.1297382,24.639571 L41.11591,24.639571 C40.3714085,24.639571 39.6953896,24.4324381 39.0750128,24.0311386 C38.4407255,23.6160468 37.9579724,23.0072015 37.5992618,22.2046026 C37.2407981,21.3882114 37.0613604,20.4055687 37.0613604,19.2433778 C37.0613604,18.1499008 37.2271345,17.1814634 37.558024,16.3650722 C37.9027418,15.5347234 38.3716667,14.8981282 38.9921258,14.4555343 C39.5989213,13.9988177 40.3022674,13.7911067 41.0747546,13.7911067 L41.1297382,13.7911067 C41.8607408,13.7911067 42.5363482,14.0126101 43.1431437,14.4415768 C43.7776779,14.8707913 44.2740946,15.4935116 44.6464688,16.3099028 C45.0050971,17.126294 45.1981161,18.1086889 45.1981161,19.2433778 C45.1981161,20.4610684 45.0050971,21.4711306 44.6464688,22.2737295 L44.6464688,22.2737295 Z M48.9215291,4.86605512 C48.5632301,4.45096333 48.0668134,4.24333485 47.4461074,4.24333485 C46.7978272,4.24333485 46.3013282,4.46483827 45.9566104,4.92163745 C45.5979821,5.36414875 45.4327019,6.02857641 45.4327019,6.90021961 L45.4327019,13.2101764 C44.6328052,12.3245757 43.805252,11.6879805 42.963953,11.2589311 C42.4261339,10.9961333 41.8194208,10.8025449 41.1297382,10.7057507 C40.7298722,10.6501684 40.3160956,10.6222534 39.8611636,10.6222534 C37.7510429,10.6222534 36.0272071,11.3696829 34.730729,12.8639637 C33.434498,14.3587402 32.7863824,16.4341165 32.7863824,19.1048762 C32.7863824,20.3641917 32.9517449,21.5401749 33.2689709,22.619777 C33.5999427,23.6989661 34.0826958,24.639571 34.7170654,25.4425003 C35.3513528,26.2450991 36.1100941,26.8539445 36.9787203,27.2968687 C37.8475936,27.7255051 38.7852786,27.9469259 39.8057684,27.9469259 C40.2610297,27.9469259 40.7022981,27.9052185 41.1297382,27.8223819 C41.4056442,27.7810874 41.6677219,27.7117127 41.929635,27.6287109 C42.5779151,27.4072075 43.1847106,27.0892402 43.7362756,26.6879408 C44.301751,26.2724361 44.8533983,25.7331306 45.4327019,25.0825778 L45.4327019,25.4976696 C45.4327019,26.2868065 45.6257209,26.8816943 45.9979305,27.3103307 C46.3703047,27.7255051 46.8667214,27.9469259 47.4461074,27.9469259 C48.0113359,27.9469259 48.5078349,27.7394626 48.880456,27.3380806 C49.2525833,26.9230714 49.431774,26.314226 49.431774,25.4976696 L49.431774,6.67871619 C49.431774,5.89007483 49.2664939,5.2812295 48.9215291,4.86605512 L48.9215291,4.86605512 Z" id="Fill-6"></path>
            <path d="M20.2917618,12.9472959 L20.2917618,13.4728091 C21.0502561,12.4766218 21.8639811,11.7571074 22.7466002,11.286681 C23.6429652,10.8299644 24.663455,10.594999 25.8219801,10.594999 C26.9389381,10.594999 27.945682,10.8437568 28.8283011,11.3283884 C29.7109202,11.8126071 30.3591181,12.5043717 30.8004688,13.4037648 C31.0900383,13.9296908 31.2693113,14.4969114 31.3520337,15.1056741 C31.4348384,15.7010575 31.4762408,16.4758239 31.4762408,17.4168418 L31.4762408,25.3457061 C31.4762408,26.2034743 31.2693113,26.8539445 30.8831912,27.2829112 C30.4969888,27.7255051 29.9867439,27.9469259 29.3662025,27.9469259 C28.7318328,27.9469259 28.2215056,27.7255051 27.8216396,27.2690363 C27.4216089,26.826112 27.22859,26.1755593 27.22859,25.3457061 L27.22859,18.2471905 C27.22859,16.8354159 27.0355711,15.7562268 26.6493686,15.0088799 C26.2631662,14.261946 25.4770976,13.888066 24.3187372,13.888066 C23.5601605,13.888066 22.8706426,14.1232792 22.2500189,14.566286 C21.6294775,15.0227549 21.1605527,15.6454751 20.8709831,16.448074 C20.664136,17.0845866 20.5675854,18.2606525 20.5675854,20.017979 L20.5675854,25.3457061 C20.5675854,26.2172667 20.3607382,26.8539445 19.9607899,27.2968687 C19.5608415,27.7255051 19.0505966,27.9469259 18.416227,27.9469259 C17.7956033,27.9469259 17.2991043,27.7255051 16.8992382,27.2690363 C16.4992076,26.826112 16.3061887,26.1755593 16.3061887,25.3457061 L16.3061887,13.0164228 C16.3061887,12.2000316 16.4854617,11.5911863 16.8440077,11.2038444 C17.1888078,10.8025449 17.6714785,10.594999 18.2921022,10.594999 C18.6643942,10.594999 18.9954484,10.6779183 19.2988461,10.8576317 C19.6021616,11.0375103 19.850411,11.3006385 20.0297664,11.6602306 C20.2090394,12.0202356 20.2917618,12.4492023 20.2917618,12.9472959" id="Fill-7"></path>
            <path d="M8.88668967,0.701014543 C11.7551401,-0.336880104 15.0236212,-0.281297777 17.4784596,1.8496609 C17.9334739,2.27829726 18.457547,2.81809828 18.6643942,3.45477608 C18.9126437,4.25720978 17.7956033,3.37177424 17.6439044,3.26102253 C16.8440077,2.73517903 16.0441109,2.2921722 15.1478282,1.98774953 C10.320956,0.493468649 5.75616155,3.19197821 2.91520297,7.3844383 C1.72918609,9.23872418 0.956863497,11.1898868 0.322576176,13.3347204 C0.253517382,13.5700988 0.198369121,13.8744389 0.074408998,14.0816544 C-0.0498803681,14.3171153 0.0190961145,13.4453896 0.0190961145,13.4176397 C0.115646728,12.5322041 0.295002045,11.6741055 0.515595092,10.8164198 C1.82573671,6.24966688 4.72184356,2.4446313 8.88668967,0.701014543" id="Fill-9"></path>
            <path d="M12.6240133,12.0358125 C10.9001774,12.9215576 8.79013906,12.2295331 7.92134816,10.4993479 C7.03864673,8.76924539 7.72824693,6.65161902 9.45208282,5.77942198 C11.1759187,4.89375949 13.2859571,5.58570138 14.1548303,7.31588654 C15.0374494,9.0459891 14.3478492,11.1636155 12.6240133,12.0358125" id="Fill-11"></path>
        </g>
        <text id="embox" font-family="HelveticaNeue, Helvetica Neue" font-size="14" font-weight="normal" line-spacing="22" fill="#FF5A1F">
            <tspan x="108" y="22">embox</tspan>
        </text>
        <text id="beta" font-family="HelveticaNeue, Helvetica Neue" font-size="10" font-weight="normal" line-spacing="22" fill="#767676">
            <tspan x="150" y="10">beta</tspan>
        </text>
    </g>
</svg>